<svg xmlns="http://www.w3.org/2000/svg" width="50" height="50" viewBox="0 0 32 32">
    <g id="profile_x2C__person" transform="translate(-0.5 -0.5)">
        <g id="Group_22" data-name="Group 22" transform="translate(1 1)">
            <g id="Group_21" data-name="Group 21">
                <g id="Group_20" data-name="Group 20">
                    <path id="Path_16" data-name="Path 16"
                          d="M16.5,32A15.5,15.5,0,1,1,32,16.5,15.518,15.518,0,0,1,16.5,32Zm0-29.967A14.467,14.467,0,1,0,30.967,16.5,14.483,14.483,0,0,0,16.5,2.033Z"
                          transform="translate(-1 -1)" fill="#80A2CE" stroke="#80A2CE" stroke-width="1"/>
                </g>
            </g>
        </g>
        <g id="Group_36" data-name="Group 36" transform="translate(6.5 7.522)">
            <g id="team_3_">
                <g id="Group_26" data-name="Group 26" transform="translate(11.631 9.438)">
                    <g id="Group_25" data-name="Group 25">
                        <g id="Group_24" data-name="Group 24">
                            <g id="Group_23" data-name="Group 23">
                                <path id="Path_17" data-name="Path 17"
                                      d="M23.64,20.713l-4.762-1.652-.323-2.584a1.741,1.741,0,0,1-.924.671l.293,2.345a.5.5,0,0,0,.332.41l5.055,1.756A2.779,2.779,0,0,1,25,24.04v-.007a.5.5,0,0,0,1,0A3.774,3.774,0,0,0,23.64,20.713Z"
                                      transform="translate(-17.631 -16.477)" fill="#80A2CE" stroke="#80A2CE"
                                      stroke-width="1"/>
                            </g>
                        </g>
                    </g>
                </g>
                <g id="Group_30" data-name="Group 30" transform="translate(0 11.316)">
                    <g id="Group_29" data-name="Group 29">
                        <g id="Group_28" data-name="Group 28">
                            <g id="Group_27" data-name="Group 27">
                                <path id="Path_18" data-name="Path 18"
                                      d="M6.5,24.532a.5.5,0,0,1-.5-.5v.007a3.774,3.774,0,0,1,2.359-3.326l4.762-1.641.012-.28a.5.5,0,1,1,.993.125l-.051.589a.5.5,0,0,1-.333.41L8.688,21.658A2.782,2.782,0,0,0,7,24.039v-.007A.5.5,0,0,1,6.5,24.532Z"
                                      transform="translate(-6 -18.355)" fill="#80A2CE" stroke="#80A2CE"
                                      stroke-width="1"/>
                            </g>
                        </g>
                    </g>
                </g>
                <g id="Group_35" data-name="Group 35" transform="translate(5.799)">
                    <g id="Group_34" data-name="Group 34">
                        <g id="Group_33" data-name="Group 33">
                            <g id="Group_32" data-name="Group 32">
                                <g id="Group_31" data-name="Group 31">
                                    <path id="Path_19" data-name="Path 19"
                                          d="M16,18.039c-2.779,0-4.192-1.844-4.2-6.469A4.421,4.421,0,0,1,13.026,8.1,4.031,4.031,0,0,1,16,7.039,4.031,4.031,0,0,1,18.975,8.1,4.42,4.42,0,0,1,20.2,11.571C20.192,16.195,18.779,18.039,16,18.039Zm0-10a3.047,3.047,0,0,0-2.267.769,3.234,3.234,0,0,0-.935,2.761c.008,4.018,1.055,5.471,3.2,5.471s3.193-1.453,3.2-5.471a3.234,3.234,0,0,0-.935-2.761A3.039,3.039,0,0,0,16,8.039Z"
                                          transform="translate(-11.799 -7.039)" fill="#80A2CE" stroke="#80A2CE"
                                          stroke-width="1"/>
                                </g>
                            </g>
                        </g>
                    </g>
                </g>
            </g>
        </g>
    </g>
</svg>
